<svg xmlns="http://www.w3.org/2000/svg" viewBox="0 0 100 100">
  <defs>
    <linearGradient id="gearGradient" x1="0%" y1="0%" x2="100%" y2="100%">
      <stop offset="0%" style="stop-color:#e2e8f0;stop-opacity:1" />
      <stop offset="100%" style="stop-color:#64748b;stop-opacity:1" />
    </linearGradient>
  </defs>
  
  <!-- Gear outer teeth -->
  <path d="M50,10 L55,20 L60,10 L65,22 L70,15 L72,25 L78,20 L78,28 L85,26 L82,35 L90,35 L85,42 L92,45 L85,52 L90,58 L82,60 L85,68 L78,68 L78,76 L72,71 L70,81 L65,74 L60,86 L55,76 L50,86 L45,76 L40,86 L35,74 L30,81 L28,71 L22,76 L22,68 L15,68 L18,60 L10,58 L15,52 L8,45 L15,42 L10,35 L18,35 L15,28 L22,28 L22,20 L28,25 L30,15 L35,22 L40,10 L45,20 Z" 
        fill="url(#gearGradient)" 
        stroke="#475569" 
        stroke-width="1"/>
  
  <!-- Gear inner circle -->
  <circle cx="50" cy="50" r="15" fill="#1e293b" stroke="#0f172a" stroke-width="2"/>
  
  <!-- Center hole -->
  <circle cx="50" cy="50" r="8" fill="#0f172a"/>
</svg>

